<?xml version="1.0" encoding="UTF-8"?>
<svg version="1.1" xmlns="http://www.w3.org/2000/svg" width="16" height="16">
<path d="M0 0 C3 0.25 3 0.25 5 2.25 C5.1953125 5.5078125 5.1953125 5.5078125 5.125 9.375 C5.10695313 10.65632812 5.08890625 11.93765625 5.0703125 13.2578125 C5.04710937 14.24523438 5.02390625 15.23265625 5 16.25 C3.88625 16.064375 2.7725 15.87875 1.625 15.6875 C-1.82568861 14.93319343 -1.82568861 14.93319343 -4 16.25 C-5.99960012 16.289992 -8.00047242 16.29346799 -10 16.25 C-9.37257439 11.60705045 -9.37257439 11.60705045 -7.5 9.8125 C-5.34038707 7.5629032 -5.44996298 5.27117998 -5 2.25 C-3 0.25 -3 0.25 0 0 Z M-2 2.25 C-2.33 3.24 -2.66 4.23 -3 5.25 C-2.01 5.25 -1.02 5.25 0 5.25 C0 4.26 0 3.27 0 2.25 C-0.66 2.25 -1.32 2.25 -2 2.25 Z M-4 10.25 C-5.485 12.23 -5.485 12.23 -7 14.25 C-5.68 13.59 -4.36 12.93 -3 12.25 C-3.33 11.59 -3.66 10.93 -4 10.25 Z " fill="#2C8BDB" transform="translate(11,-0.25)"/>
</svg>
