<?xml version="1.0" encoding="UTF-8"?>
<svg version="1.1" xmlns="http://www.w3.org/2000/svg" width="1024" height="1024">
<path d="M0 0 C16.5 0 33 0 50 0 C50 0.66 50 1.32 50 2 C53.96 2 57.92 2 62 2 C62 2.66 62 3.32 62 4 C64.64 4 67.28 4 70 4 C70 4.66 70 5.32 70 6 C71.98 6 73.96 6 76 6 C76 6.66 76 7.32 76 8 C77.98 8 79.96 8 82 8 C82 8.66 82 9.32 82 10 C83.32 10 84.64 10 86 10 C86 10.66 86 11.32 86 12 C87.32 12 88.64 12 90 12 C90 12.66 90 13.32 90 14 C91.32 14 92.64 14 94 14 C94 14.66 94 15.32 94 16 C95.32 16 96.64 16 98 16 C98 16.66 98 17.32 98 18 C98.86625 18.433125 98.86625 18.433125 99.75 18.875 C101.83333333 19.91666667 103.91666667 20.95833333 106 22 C106 22.66 106 23.32 106 24 C106.57524414 24.25072266 107.15048828 24.50144531 107.74316406 24.75976562 C110.30441196 26.16728827 112.04057392 27.78170025 114.109375 29.84375 C114.86347656 30.59527344 115.61757813 31.34679687 116.39453125 32.12109375 C117.17183594 32.90613281 117.94914063 33.69117188 118.75 34.5 C119.54277344 35.28503906 120.33554687 36.07007813 121.15234375 36.87890625 C121.90128906 37.63042969 122.65023437 38.38195312 123.421875 39.15625 C124.45199707 40.18975586 124.45199707 40.18975586 125.50292969 41.24414062 C127 43 127 43 127 45 C127.66 45 128.32 45 129 45 C129.66 46.98 130.32 48.96 131 51 C131.66 51 132.32 51 133 51 C133.66 52.98 134.32 54.96 135 57 C135.66 57 136.32 57 137 57 C137 58.32 137 59.64 137 61 C137.66 61 138.32 61 139 61 C139 62.32 139 63.64 139 65 C139.66 65 140.32 65 141 65 C141 66.98 141 68.96 141 71 C141.66 71 142.32 71 143 71 C143 72.98 143 74.96 143 77 C143.66 77 144.32 77 145 77 C145 79.64 145 82.28 145 85 C145.66 85 146.32 85 147 85 C147 98.2 147 111.4 147 125 C146.34 125 145.68 125 145 125 C145 128.3 145 131.6 145 135 C144.34 135 143.68 135 143 135 C143 139.62 143 144.24 143 149 C142.34 149 141.68 149 141 149 C141 152.3 141 155.6 141 159 C140.34 159 139.68 159 139 159 C139 162.3 139 165.6 139 169 C138.34 169 137.68 169 137 169 C137 171.64 137 174.28 137 177 C136.34 177 135.68 177 135 177 C135 179.64 135 182.28 135 185 C134.34 185 133.68 185 133 185 C133 187.64 133 190.28 133 193 C132.34 193 131.68 193 131 193 C131 194.98 131 196.96 131 199 C130.34 199 129.68 199 129 199 C129 200.98 129 202.96 129 205 C128.34 205 127.68 205 127 205 C127 206.32 127 207.64 127 209 C126.34 209 125.68 209 125 209 C125 210.32 125 211.64 125 213 C124.34 213 123.68 213 123 213 C123 214.98 123 216.96 123 219 C122.34 219 121.68 219 121 219 C121 220.32 121 221.64 121 223 C120.34 223 119.68 223 119 223 C119 224.32 119 225.64 119 227 C118.34 227 117.68 227 117 227 C117 228.32 117 229.64 117 231 C116.34 231 115.68 231 115 231 C114.34 232.98 113.68 234.96 113 237 C112.34 237 111.68 237 111 237 C110.60554687 237.87398438 110.60554687 237.87398438 110.203125 238.765625 C108.1848312 242.51388491 105.39721877 245.44681074 102 248 C98.5625 248.4375 98.5625 248.4375 96 248 C96 248.66 96 249.32 96 250 C93.43571485 250.13559675 90.87864784 250.23433188 88.3125 250.3125 C87.59126953 250.35439453 86.87003906 250.39628906 86.12695312 250.43945312 C81.89433358 250.53608827 80.50278236 250.43620704 77.16796875 247.54296875 C76.09482422 246.28419922 76.09482422 246.28419922 75 245 C74.01 244.67 73.02 244.34 72 244 C72 243.34 72 242.68 72 242 C71.43796875 241.74476563 70.8759375 241.48953125 70.296875 241.2265625 C65.53275815 238.68245929 61.86490872 235.60667712 59 231 C57.91578222 225.72658235 58.4718085 220.3145194 59 215 C59.66 215 60.32 215 61 215 C61 213.02 61 211.04 61 209 C61.66 209 62.32 209 63 209 C63 206.36 63 203.72 63 201 C63.66 201 64.32 201 65 201 C65 199.02 65 197.04 65 195 C65.66 195 66.32 195 67 195 C67 193.02 67 191.04 67 189 C67.66 189 68.32 189 69 189 C69 187.02 69 185.04 69 183 C69.66 183 70.32 183 71 183 C71 180.36 71 177.72 71 175 C71.66 175 72.32 175 73 175 C73 173.02 73 171.04 73 169 C73.66 169 74.32 169 75 169 C75 166.36 75 163.72 75 161 C75.66 161 76.32 161 77 161 C77 159.02 77 157.04 77 155 C77.66 155 78.32 155 79 155 C79 152.36 79 149.72 79 147 C79.66 147 80.32 147 81 147 C81 144.36 81 141.72 81 139 C81.66 139 82.32 139 83 139 C83 135.7 83 132.4 83 129 C83.66 129 84.32 129 85 129 C85 125.7 85 122.4 85 119 C85.66 119 86.32 119 87 119 C87 109.76 87 100.52 87 91 C86.34 91 85.68 91 85 91 C85 88.36 85 85.72 85 83 C84.34 83 83.68 83 83 83 C83 81.02 83 79.04 83 77 C82.34 77 81.68 77 81 77 C81 75.68 81 74.36 81 73 C80.34 73 79.68 73 79 73 C78.34 70.36 77.68 67.72 77 65 C76.34 65 75.68 65 75 65 C75 63.68 75 62.36 75 61 C74.34 61 73.68 61 73 61 C72.34 59.02 71.68 57.04 71 55 C70.34 55 69.68 55 69 55 C68 53.33333333 67 51.66666667 66 50 C62.55555305 46.1640959 62.55555305 46.1640959 58 44 C58 43.34 58 42.68 58 42 C56.68 42 55.36 42 54 42 C54 41.34 54 40.68 54 40 C52.68 40 51.36 40 50 40 C50 39.34 50 38.68 50 38 C48.68 38 47.36 38 46 38 C46 37.34 46 36.68 46 36 C42.7 36 39.4 36 36 36 C36 35.34 36 34.68 36 34 C28.08 34 20.16 34 12 34 C12 34.66 12 35.32 12 36 C9.36 36 6.72 36 4 36 C4 36.66 4 37.32 4 38 C2.02 38 0.04 38 -2 38 C-2 38.66 -2 39.32 -2 40 C-3.98 40 -5.96 40 -8 40 C-8 40.66 -8 41.32 -8 42 C-9.98 42 -11.96 42 -14 42 C-14 42.66 -14 43.32 -14 44 C-15.32 44 -16.64 44 -18 44 C-18 44.66 -18 45.32 -18 46 C-19.423125 46.433125 -19.423125 46.433125 -20.875 46.875 C-24.05211578 47.76825109 -24.05211578 47.76825109 -26 50 C-29.125 50.125 -29.125 50.125 -32 50 C-32 50.66 -32 51.32 -32 52 C-33.98 52.66 -35.96 53.32 -38 54 C-38 54.66 -38 55.32 -38 56 C-39.32 56 -40.64 56 -42 56 C-42 56.66 -42 57.32 -42 58 C-43.32 58 -44.64 58 -46 58 C-46 58.66 -46 59.32 -46 60 C-47.98 60.66 -49.96 61.32 -52 62 C-52 62.66 -52 63.32 -52 64 C-53.98 64.66 -55.96 65.32 -58 66 C-58 66.66 -58 67.32 -58 68 C-59.98 68.66 -61.96 69.32 -64 70 C-64 70.66 -64 71.32 -64 72 C-65.65071396 73.02611949 -67.31970006 74.02308143 -69 75 C-69.556875 75.556875 -70.11375 76.11375 -70.6875 76.6875 C-71.120625 77.120625 -71.55375 77.55375 -72 78 C-72.66 78 -73.32 78 -74 78 C-74 78.66 -74 79.32 -74 80 C-74.69383789 80.41056641 -75.38767578 80.82113281 -76.10253906 81.24414062 C-79.711445 83.43113519 -82.39909239 86.11212915 -85.359375 89.09375 C-85.9492218 89.68168335 -86.5390686 90.2696167 -87.14678955 90.87536621 C-88.3862889 92.11350984 -89.6232873 93.35416167 -90.85791016 94.59716797 C-92.75072952 96.50073367 -94.65402871 98.39335047 -96.55859375 100.28515625 C-97.76366296 101.49154642 -98.96811197 102.69855649 -100.171875 103.90625 C-100.74162048 104.47194702 -101.31136597 105.03764404 -101.89837646 105.6204834 C-104.30762522 108.05869904 -105.90101745 109.70305234 -107 113 C-107.66 113 -108.32 113 -109 113 C-109.4021875 113.8971875 -109.4021875 113.8971875 -109.8125 114.8125 C-110.99308761 116.98726664 -112.26816512 118.26816512 -114 120 C-114.33 120.99 -114.66 121.98 -115 123 C-115.66 123 -116.32 123 -117 123 C-117.4021875 123.8971875 -117.4021875 123.8971875 -117.8125 124.8125 C-118.99308761 126.98726664 -120.26816512 128.26816512 -122 130 C-122.33 130.99 -122.66 131.98 -123 133 C-123.66 133 -124.32 133 -125 133 C-125.433125 133.86625 -125.433125 133.86625 -125.875 134.75 C-126.91666667 136.83333333 -127.95833333 138.91666667 -129 141 C-129.66 141 -130.32 141 -131 141 C-131.433125 141.86625 -131.433125 141.86625 -131.875 142.75 C-132.91666667 144.83333333 -133.95833333 146.91666667 -135 149 C-135.66 149 -136.32 149 -137 149 C-137.268125 149.598125 -137.53625 150.19625 -137.8125 150.8125 C-138.99308761 152.98726664 -140.26816512 154.26816512 -142 156 C-142.33 156.99 -142.66 157.98 -143 159 C-143.66 159 -144.32 159 -145 159 C-145.433125 159.86625 -145.433125 159.86625 -145.875 160.75 C-146.91666667 162.83333333 -147.95833333 164.91666667 -149 167 C-149.66 167 -150.32 167 -151 167 C-151.66 168.98 -152.32 170.96 -153 173 C-153.66 173 -154.32 173 -155 173 C-155.433125 173.86625 -155.433125 173.86625 -155.875 174.75 C-156.91666667 176.83333333 -157.95833333 178.91666667 -159 181 C-159.66 181 -160.32 181 -161 181 C-161.66 182.98 -162.32 184.96 -163 187 C-163.66 187 -164.32 187 -165 187 C-165.66 188.98 -166.32 190.96 -167 193 C-167.66 193 -168.32 193 -169 193 C-169.66 194.98 -170.32 196.96 -171 199 C-171.66 199 -172.32 199 -173 199 C-173.66 200.98 -174.32 202.96 -175 205 C-175.66 205 -176.32 205 -177 205 C-177.66 206.98 -178.32 208.96 -179 211 C-179.66 211 -180.32 211 -181 211 C-181.66 212.98 -182.32 214.96 -183 217 C-183.66 217 -184.32 217 -185 217 C-185 218.32 -185 219.64 -185 221 C-185.66 221 -186.32 221 -187 221 C-187.66 222.98 -188.32 224.96 -189 227 C-189.66 227 -190.32 227 -191 227 C-191 228.32 -191 229.64 -191 231 C-191.66 231 -192.32 231 -193 231 C-193.66 232.98 -194.32 234.96 -195 237 C-195.66 237 -196.32 237 -197 237 C-197 238.32 -197 239.64 -197 241 C-197.66 241 -198.32 241 -199 241 C-199.66 242.98 -200.32 244.96 -201 247 C-201.66 247 -202.32 247 -203 247 C-203 248.32 -203 249.64 -203 251 C-203.66 251 -204.32 251 -205 251 C-205.66 252.98 -206.32 254.96 -207 257 C-207.66 257 -208.32 257 -209 257 C-209 258.32 -209 259.64 -209 261 C-209.66 261 -210.32 261 -211 261 C-211 262.32 -211 263.64 -211 265 C-211.66 265 -212.32 265 -213 265 C-213 266.32 -213 267.64 -213 269 C-213.66 269 -214.32 269 -215 269 C-215 270.32 -215 271.64 -215 273 C-215.66 273 -216.32 273 -217 273 C-217.66 274.98 -218.32 276.96 -219 279 C-219.66 279 -220.32 279 -221 279 C-221 280.32 -221 281.64 -221 283 C-221.66 283 -222.32 283 -223 283 C-223 284.32 -223 285.64 -223 287 C-223.66 287 -224.32 287 -225 287 C-225 288.32 -225 289.64 -225 291 C-225.66 291 -226.32 291 -227 291 C-227 292.32 -227 293.64 -227 295 C-227.66 295 -228.32 295 -229 295 C-229 296.32 -229 297.64 -229 299 C-229.66 299 -230.32 299 -231 299 C-231 300.98 -231 302.96 -231 305 C-231.66 305 -232.32 305 -233 305 C-233 306.98 -233 308.96 -233 311 C-233.66 311 -234.32 311 -235 311 C-235 312.32 -235 313.64 -235 315 C-235.66 315 -236.32 315 -237 315 C-237 316.98 -237 318.96 -237 321 C-237.66 321 -238.32 321 -239 321 C-239 322.98 -239 324.96 -239 327 C-239.66 327 -240.32 327 -241 327 C-241 328.98 -241 330.96 -241 333 C-241.66 333 -242.32 333 -243 333 C-243 334.98 -243 336.96 -243 339 C-243.66 339 -244.32 339 -245 339 C-245 341.97 -245 344.94 -245 348 C-240.71 348 -236.42 348 -232 348 C-232 347.34 -232 346.68 -232 346 C-228.7 346 -225.4 346 -222 346 C-222 345.34 -222 344.68 -222 344 C-219.36 344 -216.72 344 -214 344 C-214 343.34 -214 342.68 -214 342 C-210.7 342 -207.4 342 -204 342 C-204 341.34 -204 340.68 -204 340 C-201.36 340 -198.72 340 -196 340 C-196 339.34 -196 338.68 -196 338 C-192.7 338 -189.4 338 -186 338 C-186 337.34 -186 336.68 -186 336 C-183.36 336 -180.72 336 -178 336 C-178 335.34 -178 334.68 -178 334 C-174.7 334 -171.4 334 -168 334 C-168 333.34 -168 332.68 -168 332 C-164.04 332 -160.08 332 -156 332 C-156 331.34 -156 330.68 -156 330 C-152.7 330 -149.4 330 -146 330 C-146 329.34 -146 328.68 -146 328 C-142.7 328 -139.4 328 -136 328 C-136 327.34 -136 326.68 -136 326 C-132.04 326 -128.08 326 -124 326 C-124 325.34 -124 324.68 -124 324 C-121.36 324 -118.72 324 -116 324 C-116 323.34 -116 322.68 -116 322 C-112.04 322 -108.08 322 -104 322 C-104 321.34 -104 320.68 -104 320 C-98.72 320 -93.44 320 -88 320 C-88 319.34 -88 318.68 -88 318 C-68.2 318 -48.4 318 -28 318 C-28 318.66 -28 319.32 -28 320 C-23.38 320 -18.76 320 -14 320 C-14 320.66 -14 321.32 -14 322 C-10.7 322 -7.4 322 -4 322 C-4 322.66 -4 323.32 -4 324 C-1.36 324 1.28 324 4 324 C4 324.66 4 325.32 4 326 C6.64 326 9.28 326 12 326 C12 326.66 12 327.32 12 328 C13.98 328 15.96 328 18 328 C18 328.66 18 329.32 18 330 C19.98 330 21.96 330 24 330 C24 330.66 24 331.32 24 332 C25.98 332 27.96 332 30 332 C30 332.66 30 333.32 30 334 C31.98 334 33.96 334 36 334 C36 334.66 36 335.32 36 336 C37.32 336 38.64 336 40 336 C40 336.66 40 337.32 40 338 C41.32 338 42.64 338 44 338 C44 338.66 44 339.32 44 340 C45.3921875 339.9071875 45.3921875 339.9071875 46.8125 339.8125 C50 340 50 340 51.6875 341.4375 C52.120625 341.953125 52.55375 342.46875 53 343 C53.99 343.33 54.98 343.66 56 344 C56 344.66 56 345.32 56 346 C57.98 346.66 59.96 347.32 62 348 C62 348.66 62 349.32 62 350 C62.58265625 350.2578125 63.1653125 350.515625 63.765625 350.78125 C66.1802903 352.09834017 67.81740177 353.55088384 69.75 355.5 C70.36359375 356.1084375 70.9771875 356.716875 71.609375 357.34375 C73 359 73 359 73 361 C73.66 361 74.32 361 75 361 C75.66 362.98 76.32 364.96 77 367 C77.66 367 78.32 367 79 367 C79 368.32 79 369.64 79 371 C79.66 371 80.32 371 81 371 C81 372.32 81 373.64 81 375 C81.66 375 82.32 375 83 375 C83 376.32 83 377.64 83 379 C83.66 379 84.32 379 85 379 C85 380.32 85 381.64 85 383 C85.66 383 86.32 383 87 383 C87 385.64 87 388.28 87 391 C87.66 391 88.32 391 89 391 C89 395.62 89 400.24 89 405 C88.34 405 87.68 405 87 405 C87 412.26 87 419.52 87 427 C86.34 427 85.68 427 85 427 C85 430.3 85 433.6 85 437 C84.34 437 83.68 437 83 437 C83 440.3 83 443.6 83 447 C82.34 447 81.68 447 81 447 C81 449.64 81 452.28 81 455 C80.34 455 79.68 455 79 455 C79 456.98 79 458.96 79 461 C78.34 461 77.68 461 77 461 C77 462.98 77 464.96 77 467 C76.34 467 75.68 467 75 467 C75 468.98 75 470.96 75 473 C74.34 473 73.68 473 73 473 C73 474.98 73 476.96 73 479 C72.34 479 71.68 479 71 479 C71 480.32 71 481.64 71 483 C70.34 483 69.68 483 69 483 C69 484.98 69 486.96 69 489 C68.34 489 67.68 489 67 489 C67 490.32 67 491.64 67 493 C66.34 493 65.68 493 65 493 C65 494.32 65 495.64 65 497 C64.34 497 63.68 497 63 497 C63 498.32 63 499.64 63 501 C62.34 501 61.68 501 61 501 C61 502.32 61 503.64 61 505 C60.34 505 59.68 505 59 505 C59 506.32 59 507.64 59 509 C58.34 509 57.68 509 57 509 C57 510.32 57 511.64 57 513 C56.34 513 55.68 513 55 513 C55 514.32 55 515.64 55 517 C54.34 517 53.68 517 53 517 C53 518.32 53 519.64 53 521 C52.34 521 51.68 521 51 521 C51 522.32 51 523.64 51 525 C50.34 525 49.68 525 49 525 C49 526.32 49 527.64 49 529 C48.34 529 47.68 529 47 529 C47 530.32 47 531.64 47 533 C46.34 533 45.68 533 45 533 C45 534.32 45 535.64 45 537 C44.34 537 43.68 537 43 537 C43 538.32 43 539.64 43 541 C42.34 541 41.68 541 41 541 C41 542.98 41 544.96 41 547 C40.34 547 39.68 547 39 547 C39 548.32 39 549.64 39 551 C38.34 551 37.68 551 37 551 C37 552.32 37 553.64 37 555 C36.34 555 35.68 555 35 555 C35 556.32 35 557.64 35 559 C34.34 559 33.68 559 33 559 C33 560.32 33 561.64 33 563 C32.34 563 31.68 563 31 563 C31 564.32 31 565.64 31 567 C30.34 567 29.68 567 29 567 C29 568.32 29 569.64 29 571 C28.34 571 27.68 571 27 571 C27 572.32 27 573.64 27 575 C26.34 575 25.68 575 25 575 C25 576.32 25 577.64 25 579 C24.34 579 23.68 579 23 579 C23 580.32 23 581.64 23 583 C22.34 583 21.68 583 21 583 C21 584.32 21 585.64 21 587 C20.34 587 19.68 587 19 587 C19 588.32 19 589.64 19 591 C18.34 591 17.68 591 17 591 C17 592.32 17 593.64 17 595 C16.34 595 15.68 595 15 595 C15 596.32 15 597.64 15 599 C14.34 599 13.68 599 13 599 C13 600.32 13 601.64 13 603 C12.34 603 11.68 603 11 603 C11 604.32 11 605.64 11 607 C10.34 607 9.68 607 9 607 C9 608.32 9 609.64 9 611 C8.34 611 7.68 611 7 611 C6.34 612.98 5.68 614.96 5 617 C4.34 617 3.68 617 3 617 C3 618.32 3 619.64 3 621 C2.34 621 1.68 621 1 621 C0.34 622.98 -0.32 624.96 -1 627 C-1.66 627 -2.32 627 -3 627 C-3 628.32 -3 629.64 -3 631 C-3.66 631 -4.32 631 -5 631 C-5.66 632.98 -6.32 634.96 -7 637 C-7.66 637 -8.32 637 -9 637 C-9.66 638.98 -10.32 640.96 -11 643 C-11.66 643 -12.32 643 -13 643 C-13.66 644.98 -14.32 646.96 -15 649 C-15.66 649 -16.32 649 -17 649 C-17.66 650.98 -18.32 652.96 -19 655 C-19.66 655 -20.32 655 -21 655 C-21.66 656.98 -22.32 658.96 -23 661 C-23.66 661 -24.32 661 -25 661 C-25.66 662.98 -26.32 664.96 -27 667 C-27.66 667 -28.32 667 -29 667 C-29.66 668.98 -30.32 670.96 -31 673 C-31.66 673 -32.32 673 -33 673 C-33.66 674.98 -34.32 676.96 -35 679 C-35.66 679 -36.32 679 -37 679 C-37.66 680.98 -38.32 682.96 -39 685 C-39.66 685 -40.32 685 -41 685 C-41.66 686.98 -42.32 688.96 -43 691 C-43.66 691 -44.32 691 -45 691 C-45.66 692.98 -46.32 694.96 -47 697 C-47.66 697 -48.32 697 -49 697 C-49.28875 697.5775 -49.5775 698.155 -49.875 698.75 C-50.91666667 700.83333333 -51.95833333 702.91666667 -53 705 C-53.66 705 -54.32 705 -55 705 C-55.66 706.98 -56.32 708.96 -57 711 C-57.66 711 -58.32 711 -59 711 C-59.66 712.98 -60.32 714.96 -61 717 C-61.66 717 -62.32 717 -63 717 C-63.66 718.98 -64.32 720.96 -65 723 C-65.66 723 -66.32 723 -67 723 C-67.28875 723.5775 -67.5775 724.155 -67.875 724.75 C-68.91666667 726.83333333 -69.95833333 728.91666667 -71 731 C-71.66 731 -72.32 731 -73 731 C-73.28875 731.5775 -73.5775 732.155 -73.875 732.75 C-74.91666667 734.83333333 -75.95833333 736.91666667 -77 739 C-77.66 739 -78.32 739 -79 739 C-79.28875 739.5775 -79.5775 740.155 -79.875 740.75 C-80.91666667 742.83333333 -81.95833333 744.91666667 -83 747 C-83.66 747 -84.32 747 -85 747 C-85.28875 747.5775 -85.5775 748.155 -85.875 748.75 C-86.91666667 750.83333333 -87.95833333 752.91666667 -89 755 C-89.66 755 -90.32 755 -91 755 C-91.3403125 755.8353125 -91.3403125 755.8353125 -91.6875 756.6875 C-93.35302319 759.62199324 -95.62221176 761.62221176 -98 764 C-98.33 764.99 -98.66 765.98 -99 767 C-99.66 767 -100.32 767 -101 767 C-101.22941284 767.55407532 -101.45882568 768.10815063 -101.69519043 768.67901611 C-103.36782516 771.65428419 -105.46434463 773.71884697 -107.87695312 776.13574219 C-108.37146469 776.63375839 -108.86597626 777.1317746 -109.37547302 777.6448822 C-111.00574803 779.28393562 -112.64320085 780.91559366 -114.28125 782.546875 C-115.41732581 783.68429815 -116.5531046 784.82201804 -117.68859863 785.96002197 C-120.06601555 788.34038451 -122.44700548 790.71709882 -124.83056641 793.09130859 C-127.890855 796.14017706 -130.94204349 799.1979704 -133.99063873 802.25852585 C-136.33239761 804.60749631 -138.67887996 806.95170142 -141.02684021 809.29447174 C-142.15428143 810.42057586 -143.28023078 811.54817561 -144.40467834 812.67726898 C-145.97269097 814.25033812 -147.54693176 815.81689086 -149.12304688 817.38183594 C-150.01858276 818.27578064 -150.91411865 819.16972534 -151.83679199 820.09075928 C-154 822 -154 822 -156 822 C-156 822.66 -156 823.32 -156 824 C-157.0209375 824.5878125 -157.0209375 824.5878125 -158.0625 825.1875 C-161.41789725 827.25785149 -163.7725202 829.70759924 -166.44921875 832.57421875 C-168 834 -168 834 -170 834 C-170 834.66 -170 835.32 -170 836 C-171.65071396 837.02611949 -173.31970006 838.02308143 -175 839 C-175.556875 839.556875 -176.11375 840.11375 -176.6875 840.6875 C-177.3371875 841.3371875 -177.3371875 841.3371875 -178 842 C-178.66 842 -179.32 842 -180 842 C-180 842.66 -180 843.32 -180 844 C-181.65071396 845.02611949 -183.31970006 846.02308143 -185 847 C-185.556875 847.556875 -186.11375 848.11375 -186.6875 848.6875 C-187.3371875 849.3371875 -187.3371875 849.3371875 -188 850 C-188.66 850 -189.32 850 -190 850 C-190 850.66 -190 851.32 -190 852 C-191.65071396 853.02611949 -193.31970006 854.02308143 -195 855 C-195.556875 855.556875 -196.11375 856.11375 -196.6875 856.6875 C-197.3371875 857.3371875 -197.3371875 857.3371875 -198 858 C-198.66 858 -199.32 858 -200 858 C-200 858.66 -200 859.32 -200 860 C-202.63892176 861.78305524 -204.97178863 862.99059621 -208 864 C-208 864.66 -208 865.32 -208 866 C-210.63892176 867.78305524 -212.97178863 868.99059621 -216 870 C-216 870.66 -216 871.32 -216 872 C-218.63892176 873.78305524 -220.97178863 874.99059621 -224 876 C-224 876.66 -224 877.32 -224 878 C-225.98 878.66 -227.96 879.32 -230 880 C-230 880.66 -230 881.32 -230 882 C-232.63892176 883.78305524 -234.97178863 884.99059621 -238 886 C-238 886.66 -238 887.32 -238 888 C-239.98 888.66 -241.96 889.32 -244 890 C-244 890.66 -244 891.32 -244 892 C-245.98 892.66 -247.96 893.32 -250 894 C-250 894.66 -250 895.32 -250 896 C-250.99 896 -251.98 896 -253 896 C-252.90976562 896.72574219 -252.81953125 897.45148437 -252.7265625 898.19921875 C-253.09931046 902.01722281 -254.63056481 903.20225643 -257.375 905.8125 C-258.18710937 906.60269531 -258.99921875 907.39289062 -259.8359375 908.20703125 C-262 910 -262 910 -264 910 C-264 910.66 -264 911.32 -264 912 C-265.32 912 -266.64 912 -268 912 C-268 912.66 -268 913.32 -268 914 C-269.98 914 -271.96 914 -274 914 C-274 914.66 -274 915.32 -274 916 C-275.98 916 -277.96 916 -280 916 C-280 916.66 -280 917.32 -280 918 C-281.98 918 -283.96 918 -286 918 C-286 918.66 -286 919.32 -286 920 C-287.98 920 -289.96 920 -292 920 C-292 920.66 -292 921.32 -292 922 C-293.32 922 -294.64 922 -296 922 C-296 922.66 -296 923.32 -296 924 C-297.98 924 -299.96 924 -302 924 C-302 924.66 -302 925.32 -302 926 C-303.32 926 -304.64 926 -306 926 C-306 926.66 -306 927.32 -306 928 C-307.98 928 -309.96 928 -312 928 C-312 928.66 -312 929.32 -312 930 C-313.98 930 -315.96 930 -318 930 C-318 930.66 -318 931.32 -318 932 C-319.98 932 -321.96 932 -324 932 C-324 932.66 -324 933.32 -324 934 C-325.65 934 -327.3 934 -329 934 C-329 935.32 -329 936.64 -329 938 C-343.40350379 938.04671915 -357.80699584 938.08185547 -372.21055984 938.10362434 C-378.89837612 938.11407115 -385.58613995 938.12799786 -392.27392578 938.15087891 C-398.72538504 938.17257516 -405.17679535 938.18456187 -411.62828827 938.18975449 C-414.0923108 938.19345602 -416.55633059 938.20068397 -419.02033234 938.21146011 C-422.4657627 938.22593211 -425.91098955 938.22797972 -429.35644531 938.22705078 C-430.37999619 938.23424133 -431.40354706 938.24143188 -432.45811462 938.24884033 C-433.39758438 938.246091 -434.33705414 938.24334167 -435.30499268 938.24050903 C-436.52729017 938.24327441 -436.52729017 938.24327441 -437.77428055 938.24609566 C-440.23614199 937.97389001 -441.86801203 937.23050922 -444 936 C-444 935.34 -444 934.68 -444 934 C-445.32 934 -446.64 934 -448 934 C-448 933.34 -448 932.68 -448 932 C-449.98 932 -451.96 932 -454 932 C-454 931.34 -454 930.68 -454 930 C-455.32 930 -456.64 930 -458 930 C-458 929.34 -458 928.68 -458 928 C-459.32 928 -460.64 928 -462 928 C-462 927.34 -462 926.68 -462 926 C-463.32 926 -464.64 926 -466 926 C-466 925.34 -466 924.68 -466 924 C-467.98 924 -469.96 924 -472 924 C-472 923.34 -472 922.68 -472 922 C-473.32 922 -474.64 922 -476 922 C-476 921.34 -476 920.68 -476 920 C-477.32 920 -478.64 920 -480 920 C-480 919.34 -480 918.68 -480 918 C-483.96 918 -487.92 918 -492 918 C-492 917.34 -492 916.68 -492 916 C-493.32 916 -494.64 916 -496 916 C-496 915.34 -496 914.68 -496 914 C-496.99 914 -497.98 914 -499 914 C-499 913.01 -499 912.02 -499 911 C-499.66 911 -500.32 911 -501 911 C-501 909.68 -501 908.36 -501 907 C-501.66 907 -502.32 907 -503 907 C-503 905.68 -503 904.36 -503 903 C-503.66 903 -504.32 903 -505 903 C-505.18304688 902.15953125 -505.36609375 901.3190625 -505.5546875 900.453125 C-507.49714473 895.81222719 -510.49292675 893.14472985 -514.125 889.75 C-515.42351745 888.52009306 -516.71802084 887.28592952 -518.0078125 886.046875 C-518.58160645 885.50901367 -519.15540039 884.97115234 -519.74658203 884.41699219 C-521 883 -521 883 -521 881 C-521.66 881 -522.32 881 -523 881 C-523 879.68 -523 878.36 -523 877 C-523.66 877 -524.32 877 -525 877 C-525 875.68 -525 874.36 -525 873 C-525.66 873 -526.32 873 -527 873 C-527 871.02 -527 869.04 -527 867 C-527.66 867 -528.32 867 -529 867 C-529 865.02 -529 863.04 -529 861 C-529.66 861 -530.32 861 -531 861 C-531 859.02 -531 857.04 -531 855 C-531.66 855 -532.32 855 -533 855 C-533 853.02 -533 851.04 -533 849 C-533.66 849 -534.32 849 -535 849 C-535 842.4 -535 835.8 -535 829 C-534.34 829 -533.68 829 -533 829 C-533 825.7 -533 822.4 -533 819 C-532.34 819 -531.68 819 -531 819 C-531 817.02 -531 815.04 -531 813 C-530.34 813 -529.68 813 -529 813 C-529 811.02 -529 809.04 -529 807 C-528.34 807 -527.68 807 -527 807 C-527 805.02 -527 803.04 -527 801 C-526.34 801 -525.68 801 -525 801 C-525 799.02 -525 797.04 -525 795 C-524.34 795 -523.68 795 -523 795 C-523 792.36 -523 789.72 -523 787 C-522.34 787 -521.68 787 -521 787 C-521 785.02 -521 783.04 -521 781 C-520.34 781 -519.68 781 -519 781 C-519 779.02 -519 777.04 -519 775 C-518.34 775 -517.68 775 -517 775 C-517 773.68 -517 772.36 -517 771 C-516.34 771 -515.68 771 -515 771 C-515 769.02 -515 767.04 -515 765 C-514.34 765 -513.68 765 -513 765 C-513 763.02 -513 761.04 -513 759 C-512.34 759 -511.68 759 -511 759 C-511 757.68 -511 756.36 -511 755 C-510.34 755 -509.68 755 -509 755 C-509 753.68 -509 752.36 -509 751 C-508.34 751 -507.68 751 -507 751 C-507 749.68 -507 748.36 -507 747 C-506.34 747 -505.68 747 -505 747 C-505 745.68 -505 744.36 -505 743 C-504.34 743 -503.68 743 -503 743 C-503 741.68 -503 740.36 -503 739 C-502.34 739 -501.68 739 -501 739 C-501 737.68 -501 736.36 -501 735 C-500.34 735 -499.68 735 -499 735 C-499 733.68 -499 732.36 -499 731 C-498.34 731 -497.68 731 -497 731 C-496.34 729.02 -495.68 727.04 -495 725 C-494.34 725 -493.68 725 -493 725 C-492.34 723.02 -491.68 721.04 -491 719 C-490.34 719 -489.68 719 -489 719 C-488.5978125 718.1028125 -488.5978125 718.1028125 -488.1875 717.1875 C-487.00691239 715.01273336 -485.73183488 713.73183488 -484 712 C-483.67 711.01 -483.34 710.02 -483 709 C-482.34 709 -481.68 709 -481 709 C-480.5978125 708.0409375 -480.5978125 708.0409375 -480.1875 707.0625 C-479 705 -479 705 -476 704 C-476 703.34 -476 702.68 -476 702 C-473.36107824 700.21694476 -471.02821137 699.00940379 -468 698 C-468 697.34 -468 696.68 -468 696 C-466.02 695.34 -464.04 694.68 -462 694 C-462 693.34 -462 692.68 -462 692 C-461.360625 691.731875 -460.72125 691.46375 -460.0625 691.1875 C-457.66868314 690.11332248 -457.66868314 690.11332248 -457 687 C-456.34 687 -455.68 687 -455 687 C-455 685.68 -455 684.36 -455 683 C-454.34 683 -453.68 683 -453 683 C-452.71125 682.4225 -452.4225 681.845 -452.125 681.25 C-451.08333333 679.16666667 -450.04166667 677.08333333 -449 675 C-448.34 675 -447.68 675 -447 675 C-446.7421875 674.41734375 -446.484375 673.8346875 -446.21875 673.234375 C-444.90165983 670.8197097 -443.44911616 669.18259823 -441.5 667.25 C-440.8915625 666.63640625 -440.283125 666.0228125 -439.65625 665.390625 C-438 664 -438 664 -436 664 C-436 663.34 -436 662.68 -436 662 C-434.34928604 660.97388051 -432.68029994 659.97691857 -431 659 C-430.443125 658.443125 -429.88625 657.88625 -429.3125 657.3125 C-428.6628125 656.6628125 -428.6628125 656.6628125 -428 656 C-427.34 656 -426.68 656 -426 656 C-426 655.34 -426 654.68 -426 654 C-423.36107824 652.21694476 -421.02821137 651.00940379 -418 650 C-418 649.34 -418 648.68 -418 648 C-417.360625 647.731875 -416.72125 647.46375 -416.0625 647.1875 C-413.66868314 646.11332248 -413.66868314 646.11332248 -413 643 C-412.34 643 -411.68 643 -411 643 C-410.76732422 642.44280273 -410.53464844 641.88560547 -410.29492188 641.31152344 C-408.66430607 638.40076355 -406.63760806 636.37818867 -404.28125 634.015625 C-403.34925781 633.08105469 -402.41726563 632.14648438 -401.45703125 631.18359375 C-400.97186035 630.7026123 -400.48668945 630.22163086 -399.98681641 629.72607422 C-398.49793661 628.24795152 -397.02008349 626.75940089 -395.54296875 625.26953125 C-394.14498047 623.87541016 -394.14498047 623.87541016 -392.71875 622.453125 C-391.86216797 621.59879883 -391.00558594 620.74447266 -390.12304688 619.86425781 C-388 618 -388 618 -386 618 C-386 617.34 -386 616.68 -386 616 C-384.33333333 615 -382.66666667 614 -381 613 C-380.113125 612.113125 -379.22625 611.22625 -378.3125 610.3125 C-377.549375 609.549375 -376.78625 608.78625 -376 608 C-375.34 608 -374.68 608 -374 608 C-374 607.34 -374 606.68 -374 606 C-371.36107824 604.21694476 -369.02821137 603.00940379 -366 602 C-366 601.34 -366 600.68 -366 600 C-363.36107824 598.21694476 -361.02821137 597.00940379 -358 596 C-358 595.34 -358 594.68 -358 594 C-356.02 593.34 -354.04 592.68 -352 592 C-352 591.34 -352 590.68 -352 590 C-349.36107824 588.21694476 -347.02821137 587.00940379 -344 586 C-344 585.34 -344 584.68 -344 584 C-342.02 583.34 -340.04 582.68 -338 582 C-338 581.34 -338 580.68 -338 580 C-336.02 579.34 -334.04 578.68 -332 578 C-332 577.34 -332 576.68 -332 576 C-330.02 575.34 -328.04 574.68 -326 574 C-326 573.34 -326 572.68 -326 572 C-324.68 572 -323.36 572 -322 572 C-322 571.34 -322 570.68 -322 570 C-320.02 569.34 -318.04 568.68 -316 568 C-316 567.34 -316 566.68 -316 566 C-314.02 565.34 -312.04 564.68 -310 564 C-310 563.34 -310 562.68 -310 562 C-308.02 561.34 -306.04 560.68 -304 560 C-304 559.34 -304 558.68 -304 558 C-302.02 557.34 -300.04 556.68 -298 556 C-298 555.34 -298 554.68 -298 554 C-296.02 553.34 -294.04 552.68 -292 552 C-292 551.34 -292 550.68 -292 550 C-290.02 549.34 -288.04 548.68 -286 548 C-286 547.34 -286 546.68 -286 546 C-284.68 546 -283.36 546 -282 546 C-282 545.34 -282 544.68 -282 544 C-280.02 543.34 -278.04 542.68 -276 542 C-276 541.34 -276 540.68 -276 540 C-274.68 540 -273.36 540 -272 540 C-272 539.34 -272 538.68 -272 538 C-270.02 537.34 -268.04 536.68 -266 536 C-266 535.34 -266 534.68 -266 534 C-264.68 534 -263.36 534 -262 534 C-262 533.34 -262 532.68 -262 532 C-260.68 532 -259.36 532 -258 532 C-258 531.34 -258 530.68 -258 530 C-256.68 530 -255.36 530 -254 530 C-254 529.34 -254 528.68 -254 528 C-252.02 527.34 -250.04 526.68 -248 526 C-248 525.34 -248 524.68 -248 524 C-246.68 524 -245.36 524 -244 524 C-244 523.34 -244 522.68 -244 522 C-242.68 522 -241.36 522 -240 522 C-240 521.34 -240 520.68 -240 520 C-238.02 519.34 -236.04 518.68 -234 518 C-234 517.34 -234 516.68 -234 516 C-232.02 515.34 -230.04 514.68 -228 514 C-228 513.34 -228 512.68 -228 512 C-226.02 511.34 -224.04 510.68 -222 510 C-222 509.34 -222 508.68 -222 508 C-220.02 507.34 -218.04 506.68 -216 506 C-216 505.34 -216 504.68 -216 504 C-213.36107824 502.21694476 -211.02821137 501.00940379 -208 500 C-208 499.34 -208 498.68 -208 498 C-206.02 497.34 -204.04 496.68 -202 496 C-202 495.34 -202 494.68 -202 494 C-200.68 494 -199.36 494 -198 494 C-198 493.34 -198 492.68 -198 492 C-196.02 491.34 -194.04 490.68 -192 490 C-192 489.34 -192 488.68 -192 488 C-190.02 487.34 -188.04 486.68 -186 486 C-186 485.34 -186 484.68 -186 484 C-184.68 484 -183.36 484 -182 484 C-182 483.34 -182 482.68 -182 482 C-180.02 481.34 -178.04 480.68 -176 480 C-176 479.34 -176 478.68 -176 478 C-174.68 478 -173.36 478 -172 478 C-172 477.34 -172 476.68 -172 476 C-170.68 476 -169.36 476 -168 476 C-168 475.34 -168 474.68 -168 474 C-166.68 474 -165.36 474 -164 474 C-164 473.34 -164 472.68 -164 472 C-162.02 472 -160.04 472 -158 472 C-158 471.34 -158 470.68 -158 470 C-156.02 470 -154.04 470 -152 470 C-152 469.34 -152 468.68 -152 468 C-149.36 468 -146.72 468 -144 468 C-144 467.34 -144 466.68 -144 466 C-142.02 466 -140.04 466 -138 466 C-138 465.34 -138 464.68 -138 464 C-136.68 464 -135.36 464 -134 464 C-134 463.34 -134 462.68 -134 462 C-132.02 461.34 -130.04 460.68 -128 460 C-128 459.34 -128 458.68 -128 458 C-126.68 458 -125.36 458 -124 458 C-124 457.34 -124 456.68 -124 456 C-122.68 456 -121.36 456 -120 456 C-120 455.34 -120 454.68 -120 454 C-118.68 454 -117.36 454 -116 454 C-116 453.34 -116 452.68 -116 452 C-114.68 452 -113.36 452 -112 452 C-112 451.34 -112 450.68 -112 450 C-110.02 450 -108.04 450 -106 450 C-106 449.34 -106 448.68 -106 448 C-104.02 448 -102.04 448 -100 448 C-100 447.34 -100 446.68 -100 446 C-98.02 446 -96.04 446 -94 446 C-94 445.34 -94 444.68 -94 444 C-92.68 444 -91.36 444 -90 444 C-90 443.34 -90 442.68 -90 442 C-88.02 442 -86.04 442 -84 442 C-84 441.34 -84 440.68 -84 440 C-82.02 440 -80.04 440 -78 440 C-78 439.34 -78 438.68 -78 438 C-76.02 438 -74.04 438 -72 438 C-72 437.34 -72 436.68 -72 436 C-70.02 436 -68.04 436 -66 436 C-66 435.34 -66 434.68 -66 434 C-64.68 434 -63.36 434 -62 434 C-62 433.34 -62 432.68 -62 432 C-60.02 432 -58.04 432 -56 432 C-56 431.34 -56 430.68 -56 430 C-54.02 430 -52.04 430 -50 430 C-50 429.34 -50 428.68 -50 428 C-48.02 428 -46.04 428 -44 428 C-44 427.34 -44 426.68 -44 426 C-42.02 426 -40.04 426 -38 426 C-38 425.34 -38 424.68 -38 424 C-36.02 424 -34.04 424 -32 424 C-32 423.34 -32 422.68 -32 422 C-30.02 422 -28.04 422 -26 422 C-26 421.34 -26 420.68 -26 420 C-24.02 420 -22.04 420 -20 420 C-20 419.34 -20 418.68 -20 418 C-18.02 418 -16.04 418 -14 418 C-14 417.34 -14 416.68 -14 416 C-12.33333333 415 -10.66666667 414 -9 413 C-5.1640959 409.55555305 -5.1640959 409.55555305 -3 405 C-2.34 405 -1.68 405 -1 405 C-1 403.02 -1 401.04 -1 399 C-0.34 399 0.32 399 1 399 C1 395.04 1 391.08 1 387 C0.34 387 -0.32 387 -1 387 C-1.268125 386.360625 -1.53625 385.72125 -1.8125 385.0625 C-2.88667752 382.66868314 -2.88667752 382.66868314 -6 382 C-6 381.34 -6 380.68 -6 380 C-9.3 380 -12.6 380 -16 380 C-16 379.34 -16 378.68 -16 378 C-17.98 378 -19.96 378 -22 378 C-22 378.66 -22 379.32 -22 380 C-25.3 380 -28.6 380 -32 380 C-32 380.66 -32 381.32 -32 382 C-35.3 382 -38.6 382 -42 382 C-42 382.66 -42 383.32 -42 384 C-45.96 384 -49.92 384 -54 384 C-54 384.66 -54 385.32 -54 386 C-57.3 386 -60.6 386 -64 386 C-64 386.66 -64 387.32 -64 388 C-67.3 388 -70.6 388 -74 388 C-74 388.66 -74 389.32 -74 390 C-77.3 390 -80.6 390 -84 390 C-84 390.66 -84 391.32 -84 392 C-87.3 392 -90.6 392 -94 392 C-94 392.66 -94 393.32 -94 394 C-97.3 394 -100.6 394 -104 394 C-104 394.66 -104 395.32 -104 396 C-106.64 396 -109.28 396 -112 396 C-112 396.66 -112 397.32 -112 398 C-115.3 398 -118.6 398 -122 398 C-122 398.66 -122 399.32 -122 400 C-124.64 400 -127.28 400 -130 400 C-130 400.66 -130 401.32 -130 402 C-132.64 402 -135.28 402 -138 402 C-138 402.66 -138 403.32 -138 404 C-140.64 404 -143.28 404 -146 404 C-146 404.66 -146 405.32 -146 406 C-149.3 406 -152.6 406 -156 406 C-156 406.66 -156 407.32 -156 408 C-158.64 408 -161.28 408 -164 408 C-164 408.66 -164 409.32 -164 410 C-166.64 410 -169.28 410 -172 410 C-172 410.66 -172 411.32 -172 412 C-173.98 412 -175.96 412 -178 412 C-178 412.66 -178 413.32 -178 414 C-180.64 414 -183.28 414 -186 414 C-186 414.66 -186 415.32 -186 416 C-189.3 416 -192.6 416 -196 416 C-196 416.66 -196 417.32 -196 418 C-199.3 418 -202.6 418 -206 418 C-206 418.66 -206 419.32 -206 420 C-209.96 420 -213.92 420 -218 420 C-218 420.66 -218 421.32 -218 422 C-227.9 422 -237.8 422 -248 422 C-248 421.34 -248 420.68 -248 420 C-251.96 420 -255.92 420 -260 420 C-260 419.34 -260 418.68 -260 418 C-262.64 418 -265.28 418 -268 418 C-268 417.34 -268 416.68 -268 416 C-269.98 416 -271.96 416 -274 416 C-274 415.34 -274 414.68 -274 414 C-275.98 414 -277.96 414 -280 414 C-280 413.34 -280 412.68 -280 412 C-281.32 412 -282.64 412 -284 412 C-284 411.34 -284 410.68 -284 410 C-285.32 410 -286.64 410 -288 410 C-288 409.34 -288 408.68 -288 408 C-289.32 408 -290.64 408 -292 408 C-292 407.34 -292 406.68 -292 406 C-293.32 406 -294.64 406 -296 406 C-296 405.34 -296 404.68 -296 404 C-297.98 403.34 -299.96 402.68 -302 402 C-302 401.34 -302 400.68 -302 400 C-302.59329102 399.73123047 -303.18658203 399.46246094 -303.79785156 399.18554688 C-306.00540033 397.99709268 -307.46542882 396.79257611 -309.234375 395.03125 C-310.09482422 394.17466797 -310.09482422 394.17466797 -310.97265625 393.30078125 C-311.55917969 392.70652344 -312.14570313 392.11226563 -312.75 391.5 C-313.35199219 390.90574219 -313.95398438 390.31148438 -314.57421875 389.69921875 C-315.42693359 388.84263672 -315.42693359 388.84263672 -316.296875 387.96875 C-316.81604492 387.44732422 -317.33521484 386.92589844 -317.87011719 386.38867188 C-319 385 -319 385 -319 383 C-319.66 383 -320.32 383 -321 383 C-322.78305524 380.36107824 -323.99059621 378.02821137 -325 375 C-325.66 375 -326.32 375 -327 375 C-327 373.68 -327 372.36 -327 371 C-327.66 371 -328.32 371 -329 371 C-329 367.7 -329 364.4 -329 361 C-329.66 361 -330.32 361 -331 361 C-331 358.36 -331 355.72 -331 353 C-330.34 353 -329.68 353 -329 353 C-329 349.7 -329 346.4 -329 343 C-328.34 343 -327.68 343 -327 343 C-327 340.36 -327 337.72 -327 335 C-326.34 335 -325.68 335 -325 335 C-325 332.36 -325 329.72 -325 327 C-324.34 327 -323.68 327 -323 327 C-323 325.68 -323 324.36 -323 323 C-322.34 323 -321.68 323 -321 323 C-321 321.02 -321 319.04 -321 317 C-320.34 317 -319.68 317 -319 317 C-319 315.68 -319 314.36 -319 313 C-318.34 313 -317.68 313 -317 313 C-316.34 311.02 -315.68 309.04 -315 307 C-314.34 307 -313.68 307 -313 307 C-313 305.68 -313 304.36 -313 303 C-312.34 303 -311.68 303 -311 303 C-310.34 301.02 -309.68 299.04 -309 297 C-308.34 297 -307.68 297 -307 297 C-306.34 295.02 -305.68 293.04 -305 291 C-304.34 291 -303.68 291 -303 291 C-302.34 289.02 -301.68 287.04 -301 285 C-300.34 285 -299.68 285 -299 285 C-298.34 283.02 -297.68 281.04 -297 279 C-296.34 279 -295.68 279 -295 279 C-295 277.68 -295 276.36 -295 275 C-294.34 275 -293.68 275 -293 275 C-292.34 273.02 -291.68 271.04 -291 269 C-290.34 269 -289.68 269 -289 269 C-288.34 267.02 -287.68 265.04 -287 263 C-286.34 263 -285.68 263 -285 263 C-285 261.68 -285 260.36 -285 259 C-284.34 259 -283.68 259 -283 259 C-282.34 257.02 -281.68 255.04 -281 253 C-280.34 253 -279.68 253 -279 253 C-279 251.68 -279 250.36 -279 249 C-278.34 249 -277.68 249 -277 249 C-276.34 247.02 -275.68 245.04 -275 243 C-274.34 243 -273.68 243 -273 243 C-273 241.68 -273 240.36 -273 239 C-272.34 239 -271.68 239 -271 239 C-270.34 237.02 -269.68 235.04 -269 233 C-268.34 233 -267.68 233 -267 233 C-267 231.68 -267 230.36 -267 229 C-266.34 229 -265.68 229 -265 229 C-264.34 227.02 -263.68 225.04 -263 223 C-262.34 223 -261.68 223 -261 223 C-261 221.68 -261 220.36 -261 219 C-260.34 219 -259.68 219 -259 219 C-258.34 217.02 -257.68 215.04 -257 213 C-256.34 213 -255.68 213 -255 213 C-255 211.68 -255 210.36 -255 209 C-254.34 209 -253.68 209 -253 209 C-252.34 207.02 -251.68 205.04 -251 203 C-250.34 203 -249.68 203 -249 203 C-249 201.68 -249 200.36 -249 199 C-248.34 199 -247.68 199 -247 199 C-246.34 197.02 -245.68 195.04 -245 193 C-244.34 193 -243.68 193 -243 193 C-242.34 191.02 -241.68 189.04 -241 187 C-240.34 187 -239.68 187 -239 187 C-238.34 185.02 -237.68 183.04 -237 181 C-236.34 181 -235.68 181 -235 181 C-234.34 179.02 -233.68 177.04 -233 175 C-232.34 175 -231.68 175 -231 175 C-230.34 173.02 -229.68 171.04 -229 169 C-228.34 169 -227.68 169 -227 169 C-226.566875 168.13375 -226.566875 168.13375 -226.125 167.25 C-225.08333333 165.16666667 -224.04166667 163.08333333 -223 161 C-222.34 161 -221.68 161 -221 161 C-220.566875 160.13375 -220.566875 160.13375 -220.125 159.25 C-219.08333333 157.16666667 -218.04166667 155.08333333 -217 153 C-216.34 153 -215.68 153 -215 153 C-214.566875 152.13375 -214.566875 152.13375 -214.125 151.25 C-213.08333333 149.16666667 -212.04166667 147.08333333 -211 145 C-210.34 145 -209.68 145 -209 145 C-208.773125 144.443125 -208.54625 143.88625 -208.3125 143.3125 C-206.64697681 140.37800676 -204.37778824 138.37778824 -202 136 C-201.67 135.01 -201.34 134.02 -201 133 C-200.34 133 -199.68 133 -199 133 C-198.773125 132.443125 -198.54625 131.88625 -198.3125 131.3125 C-196.64697681 128.37800676 -194.37778824 126.37778824 -192 124 C-191.67 123.01 -191.34 122.02 -191 121 C-190.34 121 -189.68 121 -189 121 C-188.67708984 120.18208984 -188.67708984 120.18208984 -188.34765625 119.34765625 C-186.54063651 116.19977548 -184.04644901 113.91282806 -181.4375 111.4375 C-177.44008718 107.77423728 -177.44008718 107.77423728 -175 103 C-174.34 103 -173.68 103 -173 103 C-172.73650757 102.41184509 -172.47301514 101.82369019 -172.20153809 101.2177124 C-170.94762429 98.90332869 -169.62938424 97.37571885 -167.77539062 95.51660156 C-167.12131226 94.85621887 -166.46723389 94.19583618 -165.79333496 93.51544189 C-164.73547791 92.46365753 -164.73547791 92.46365753 -163.65625 91.390625 C-162.56890564 90.30041046 -162.56890564 90.30041046 -161.45959473 89.18817139 C-159.92880989 87.65602721 -158.39550303 86.12639925 -156.85986328 84.59912109 C-154.5018923 82.25188369 -152.15480454 79.89414222 -149.80859375 77.53515625 C-148.32095364 76.04883718 -146.83269356 74.56313831 -145.34375 73.078125 C-144.28589294 72.01419525 -144.28589294 72.01419525 -143.20666504 70.92877197 C-142.55258667 70.28099792 -141.8985083 69.63322388 -141.22460938 68.96582031 C-140.64884155 68.39164368 -140.07307373 67.81746704 -139.4798584 67.22589111 C-138 66 -138 66 -136 66 C-136 65.34 -136 64.68 -136 64 C-133.36107824 62.21694476 -131.02821137 61.00940379 -128 60 C-128 59.34 -128 58.68 -128 58 C-125.36107824 56.21694476 -123.02821137 55.00940379 -120 54 C-120 53.34 -120 52.68 -120 52 C-118.68 52 -117.36 52 -116 52 C-116 51.34 -116 50.68 -116 50 C-114.02 49.34 -112.04 48.68 -110 48 C-110 47.34 -110 46.68 -110 46 C-108.02 45.34 -106.04 44.68 -104 44 C-104 43.34 -104 42.68 -104 42 C-102.68 42 -101.36 42 -100 42 C-100 41.34 -100 40.68 -100 40 C-98.68 40 -97.36 40 -96 40 C-96 39.34 -96 38.68 -96 38 C-94.68 38 -93.36 38 -92 38 C-92 37.34 -92 36.68 -92 36 C-90.02 35.34 -88.04 34.68 -86 34 C-86 33.34 -86 32.68 -86 32 C-84.68 32 -83.36 32 -82 32 C-82 31.34 -82 30.68 -82 30 C-80.02 29.34 -78.04 28.68 -76 28 C-76 27.34 -76 26.68 -76 26 C-74.68 26 -73.36 26 -72 26 C-72 25.34 -72 24.68 -72 24 C-70.68 24 -69.36 24 -68 24 C-68 23.34 -68 22.68 -68 22 C-66.68 22 -65.36 22 -64 22 C-64 21.34 -64 20.68 -64 20 C-62.68 20 -61.36 20 -60 20 C-60 19.34 -60 18.68 -60 18 C-58.68 18 -57.36 18 -56 18 C-56 17.34 -56 16.68 -56 16 C-54.68 16 -53.36 16 -52 16 C-52 15.34 -52 14.68 -52 14 C-50.68 14 -49.36 14 -48 14 C-48 13.34 -48 12.68 -48 12 C-46.02 12 -44.04 12 -42 12 C-42 11.34 -42 10.68 -42 10 C-40.02 10 -38.04 10 -36 10 C-36 9.34 -36 8.68 -36 8 C-34.02 8 -32.04 8 -30 8 C-30 7.34 -30 6.68 -30 6 C-27.36 6 -24.72 6 -22 6 C-22 5.34 -22 4.68 -22 4 C-19.36 4 -16.72 4 -14 4 C-14 3.34 -14 2.68 -14 2 C-9.38 2 -4.76 2 0 2 C0 1.34 0 0.68 0 0 Z M-26 444 C-26 444.66 -26 445.32 -26 446 C-27.32 446 -28.64 446 -30 446 C-30 446.66 -30 447.32 -30 448 C-31.98 448 -33.96 448 -36 448 C-36 448.66 -36 449.32 -36 450 C-37.32 450 -38.64 450 -40 450 C-40 450.66 -40 451.32 -40 452 C-41.32 452 -42.64 452 -44 452 C-44 452.66 -44 453.32 -44 454 C-45.32 454 -46.64 454 -48 454 C-48 454.66 -48 455.32 -48 456 C-49.98 456 -51.96 456 -54 456 C-54 456.66 -54 457.32 -54 458 C-55.32 458 -56.64 458 -58 458 C-58 458.66 -58 459.32 -58 460 C-59.32 460 -60.64 460 -62 460 C-62 460.66 -62 461.32 -62 462 C-63.98 462 -65.96 462 -68 462 C-68 462.66 -68 463.32 -68 464 C-69.32 464 -70.64 464 -72 464 C-72 464.66 -72 465.32 -72 466 C-73.32 466 -74.64 466 -76 466 C-76 466.66 -76 467.32 -76 468 C-77.98 468 -79.96 468 -82 468 C-82 468.66 -82 469.32 -82 470 C-83.32 470 -84.64 470 -86 470 C-86 470.66 -86 471.32 -86 472 C-87.32 472 -88.64 472 -90 472 C-90 472.66 -90 473.32 -90 474 C-91.32 474 -92.64 474 -94 474 C-94 474.66 -94 475.32 -94 476 C-95.98 476 -97.96 476 -100 476 C-100 476.66 -100 477.32 -100 478 C-101.32 478 -102.64 478 -104 478 C-104 478.66 -104 479.32 -104 480 C-105.32 480 -106.64 480 -108 480 C-108 480.66 -108 481.32 -108 482 C-109.32 482 -110.64 482 -112 482 C-112 482.66 -112 483.32 -112 484 C-113.98 484 -115.96 484 -118 484 C-118 484.66 -118 485.32 -118 486 C-119.32 486 -120.64 486 -122 486 C-122 486.66 -122 487.32 -122 488 C-123.32 488 -124.64 488 -126 488 C-126 488.66 -126 489.32 -126 490 C-127.32 490 -128.64 490 -130 490 C-130 490.66 -130 491.32 -130 492 C-131.32 492 -132.64 492 -134 492 C-134 492.66 -134 493.32 -134 494 C-134.598125 494.103125 -135.19625 494.20625 -135.8125 494.3125 C-138.33421352 495.10503854 -139.39685699 495.91591409 -141 498 C-141 498.99 -141 499.98 -141 501 C-141.66 501 -142.32 501 -143 501 C-146.30290192 504.45201833 -146.30290192 504.45201833 -147 509 C-147.66 509 -148.32 509 -149 509 C-150.68732277 510.98260426 -152.35366057 512.9832342 -154 515 C-154.66 515.33 -155.32 515.66 -156 516 C-156 516.66 -156 517.32 -156 518 C-156.61875 518.144375 -157.2375 518.28875 -157.875 518.4375 C-160.03258322 518.93152225 -160.03258322 518.93152225 -162 520 C-162 520.66 -162 521.32 -162 522 C-162.53625 522.061875 -163.0725 522.12375 -163.625 522.1875 C-167.17026157 523.40035264 -169.2592392 525.44610926 -172 528 C-172 528.66 -172 529.32 -172 530 C-172.86238281 530.12375 -172.86238281 530.12375 -173.7421875 530.25 C-176.67641568 531.22469171 -178.01854965 532.75739126 -180.125 535 C-183.83050847 538.91525424 -183.83050847 538.91525424 -186 540 C-186 540.66 -186 541.32 -186 542 C-186.86238281 542.12375 -186.86238281 542.12375 -187.7421875 542.25 C-190.67641568 543.22469171 -192.01854965 544.75739126 -194.125 547 C-197.83050847 550.91525424 -197.83050847 550.91525424 -200 552 C-200 552.66 -200 553.32 -200 554 C-200.5775 554.103125 -201.155 554.20625 -201.75 554.3125 C-204.35661158 555.10896465 -205.9735311 556.19065277 -208 558 C-208 558.66 -208 559.32 -208 560 C-208.5775 560.103125 -209.155 560.20625 -209.75 560.3125 C-212.35661158 561.10896465 -213.9735311 562.19065277 -216 564 C-216 564.66 -216 565.32 -216 566 C-216.928125 566.2165625 -216.928125 566.2165625 -217.875 566.4375 C-220.03258322 566.93152225 -220.03258322 566.93152225 -222 568 C-222 568.66 -222 569.32 -222 570 C-222.928125 570.2165625 -222.928125 570.2165625 -223.875 570.4375 C-226.03258322 570.93152225 -226.03258322 570.93152225 -228 572 C-228 572.66 -228 573.32 -228 574 C-228.928125 574.2165625 -228.928125 574.2165625 -229.875 574.4375 C-232.03258322 574.93152225 -232.03258322 574.93152225 -234 576 C-234 576.66 -234 577.32 -234 578 C-234.5775 578.103125 -235.155 578.20625 -235.75 578.3125 C-238.35661158 579.10896465 -239.9735311 580.19065277 -242 582 C-242 582.66 -242 583.32 -242 584 C-242.5775 584.103125 -243.155 584.20625 -243.75 584.3125 C-246.35661158 585.10896465 -247.9735311 586.19065277 -250 588 C-250 588.66 -250 589.32 -250 590 C-250.5775 590.103125 -251.155 590.20625 -251.75 590.3125 C-254.35661158 591.10896465 -255.9735311 592.19065277 -258 594 C-258 594.66 -258 595.32 -258 596 C-258.5775 596.103125 -259.155 596.20625 -259.75 596.3125 C-262.35661158 597.10896465 -263.9735311 598.19065277 -266 600 C-266 600.66 -266 601.32 -266 602 C-266.53625 602.061875 -267.0725 602.12375 -267.625 602.1875 C-271.17026157 603.40035264 -273.2592392 605.44610926 -276 608 C-276 608.66 -276 609.32 -276 610 C-276.53625 610.061875 -277.0725 610.12375 -277.625 610.1875 C-281.17026157 611.40035264 -283.2592392 613.44610926 -286 616 C-286 616.66 -286 617.32 -286 618 C-286.53625 618.061875 -287.0725 618.12375 -287.625 618.1875 C-291.17026157 619.40035264 -293.2592392 621.44610926 -296 624 C-296 624.66 -296 625.32 -296 626 C-296.53625 626.061875 -297.0725 626.12375 -297.625 626.1875 C-301.17026157 627.40035264 -303.2592392 629.44610926 -306 632 C-306 632.66 -306 633.32 -306 634 C-306.53625 634.061875 -307.0725 634.12375 -307.625 634.1875 C-311.17026157 635.40035264 -313.2592392 637.44610926 -316 640 C-316 640.66 -316 641.32 -316 642 C-316.53625 642.061875 -317.0725 642.12375 -317.625 642.1875 C-321.17026157 643.40035264 -323.2592392 645.44610926 -326 648 C-326 648.66 -326 649.32 -326 650 C-326.53625 650.061875 -327.0725 650.12375 -327.625 650.1875 C-331.17026157 651.40035264 -333.2592392 653.44610926 -336 656 C-336 656.66 -336 657.32 -336 658 C-336.53625 658.061875 -337.0725 658.12375 -337.625 658.1875 C-341.17026157 659.40035264 -343.2592392 661.44610926 -346 664 C-346 664.66 -346 665.32 -346 666 C-346.53625 666.061875 -347.0725 666.12375 -347.625 666.1875 C-351.17026157 667.40035264 -353.2592392 669.44610926 -356 672 C-356 672.66 -356 673.32 -356 674 C-356.57234375 674.09410156 -357.1446875 674.18820312 -357.734375 674.28515625 C-360.52332319 675.16511749 -362.07276886 676.49815152 -364.25 678.4375 C-365.30960938 679.36369141 -365.30960938 679.36369141 -366.390625 680.30859375 C-368.22977363 681.85236448 -368.22977363 681.85236448 -368 684 C-368.57234375 684.09410156 -369.1446875 684.18820312 -369.734375 684.28515625 C-372.52332319 685.16511749 -374.07276886 686.49815152 -376.25 688.4375 C-377.30960938 689.36369141 -377.30960938 689.36369141 -378.390625 690.30859375 C-380.22977363 691.85236448 -380.22977363 691.85236448 -380 694 C-380.89359222 694.16310165 -380.89359222 694.16310165 -381.80523682 694.32949829 C-384.26948886 695.08232904 -385.30408327 695.92444235 -387.11621094 697.72802734 C-387.69651062 698.29887054 -388.2768103 698.86971375 -388.87469482 699.45785522 C-389.48838928 700.07762238 -390.10208374 700.69738953 -390.734375 701.3359375 C-391.37240051 701.97109283 -392.01042603 702.60624817 -392.66778564 703.26065063 C-394.01284766 704.60367299 -395.35413582 705.95048406 -396.69189453 707.30078125 C-398.74578968 709.37075672 -400.81521047 711.4242303 -402.88671875 713.4765625 C-404.19106741 714.78289309 -405.49448542 716.09015373 -406.796875 717.3984375 C-407.41866638 718.01415619 -408.04045776 718.62987488 -408.68109131 719.26425171 C-412.16542966 722.51721611 -412.16542966 722.51721611 -413 727 C-413.66 727 -414.32 727 -415 727 C-416.77860438 728.64303494 -416.77860438 728.64303494 -418.5625 730.75 C-419.49255859 731.79414062 -419.49255859 731.79414062 -420.44140625 732.859375 C-421.98531094 734.97982555 -422.57896851 736.43920573 -423 739 C-423.66 739 -424.32 739 -425 739 C-427.2773501 741.81509993 -427.2773501 741.81509993 -427 745 C-427.66 745 -428.32 745 -429 745 C-432.30290192 748.45201833 -432.30290192 748.45201833 -433 753 C-433.66 753 -434.32 753 -435 753 C-437.2773501 755.81509993 -437.2773501 755.81509993 -437 759 C-437.66 759 -438.32 759 -439 759 C-439 760.32 -439 761.64 -439 763 C-439.66 763 -440.32 763 -441 763 C-443.2773501 765.81509993 -443.2773501 765.81509993 -443 769 C-443.66 769 -444.32 769 -445 769 C-445 770.32 -445 771.64 -445 773 C-445.66 773 -446.32 773 -447 773 C-447 774.32 -447 775.64 -447 777 C-447.66 777 -448.32 777 -449 777 C-449 778.98 -449 780.96 -449 783 C-449.66 783 -450.32 783 -451 783 C-451 785.64 -451 788.28 -451 791 C-451.66 791 -452.32 791 -453 791 C-453 799.58 -453 808.16 -453 817 C-452.34 817 -451.68 817 -451 817 C-451 819.64 -451 822.28 -451 825 C-450.34 825 -449.68 825 -449 825 C-449 828.96 -449 832.92 -449 837 C-448.34 837 -447.68 837 -447 837 C-447 840.3 -447 843.6 -447 847 C-446.34 847 -445.68 847 -445 847 C-445.04125 847.763125 -445.0825 848.52625 -445.125 849.3125 C-445.22080824 852.22718416 -445.22080824 852.22718416 -443 855 C-442.34 855 -441.68 855 -441 855 C-441 856.32 -441 857.64 -441 859 C-440.34 859 -439.68 859 -439 859 C-438.855625 859.61875 -438.71125 860.2375 -438.5625 860.875 C-438.06847775 863.03258322 -438.06847775 863.03258322 -437 865 C-436.34 865 -435.68 865 -435 865 C-434.94585937 865.54140625 -434.89171875 866.0828125 -434.8359375 866.640625 C-433.61435958 870.08844306 -431.18674535 872.24737185 -428.625 874.75 C-427.8825 875.50990234 -427.8825 875.50990234 -427.125 876.28515625 C-424.14044251 879.39789409 -424.14044251 879.39789409 -420 880 C-420 880.66 -420 881.32 -420 882 C-416.54798167 885.30290192 -416.54798167 885.30290192 -412 886 C-412 886.66 -412 887.32 -412 888 C-410.68 888 -409.36 888 -408 888 C-408 888.66 -408 889.32 -408 890 C-406.02 890 -404.04 890 -402 890 C-402 890.66 -402 891.32 -402 892 C-400.02 892 -398.04 892 -396 892 C-396 892.66 -396 893.32 -396 894 C-394.02 894 -392.04 894 -390 894 C-390 893.34 -390 892.68 -390 892 C-387.36 892 -384.72 892 -382 892 C-382 891.34 -382 890.68 -382 890 C-379.36 890 -376.72 890 -374 890 C-374 889.34 -374 888.68 -374 888 C-371.36 888 -368.72 888 -366 888 C-366 887.34 -366 886.68 -366 886 C-362.7 886 -359.4 886 -356 886 C-356 885.34 -356 884.68 -356 884 C-354.02 884 -352.04 884 -350 884 C-350 883.34 -350 882.68 -350 882 C-347.36 882 -344.72 882 -342 882 C-342 881.34 -342 880.68 -342 880 C-340.02 880 -338.04 880 -336 880 C-336 879.34 -336 878.68 -336 878 C-334.68 878 -333.36 878 -332 878 C-332 877.34 -332 876.68 -332 876 C-330.02 876 -328.04 876 -326 876 C-326 875.34 -326 874.68 -326 874 C-324.68 874 -323.36 874 -322 874 C-322 873.34 -322 872.68 -322 872 C-320.68 872 -319.36 872 -318 872 C-318 871.34 -318 870.68 -318 870 C-316.68 870 -315.36 870 -314 870 C-314 869.34 -314 868.68 -314 868 C-312.68 868 -311.36 868 -310 868 C-310 867.34 -310 866.68 -310 866 C-308.68 866 -307.36 866 -306 866 C-306 865.34 -306 864.68 -306 864 C-305.38125 863.855625 -304.7625 863.71125 -304.125 863.5625 C-301.96741678 863.06847775 -301.96741678 863.06847775 -300 862 C-300 861.34 -300 860.68 -300 860 C-298.68 860 -297.36 860 -296 860 C-296 859.34 -296 858.68 -296 858 C-295.38125 857.855625 -294.7625 857.71125 -294.125 857.5625 C-291.96741678 857.06847775 -291.96741678 857.06847775 -290 856 C-290 855.34 -290 854.68 -290 854 C-289.38125 853.855625 -288.7625 853.71125 -288.125 853.5625 C-285.96741678 853.06847775 -285.96741678 853.06847775 -284 852 C-284 851.34 -284 850.68 -284 850 C-283.4225 849.896875 -282.845 849.79375 -282.25 849.6875 C-279.64338842 848.89103535 -278.0264689 847.80934723 -276 846 C-276 845.34 -276 844.68 -276 844 C-275.4225 843.896875 -274.845 843.79375 -274.25 843.6875 C-271.64338842 842.89103535 -270.0264689 841.80934723 -268 840 C-268 839.34 -268 838.68 -268 838 C-267.195625 837.9071875 -267.195625 837.9071875 -266.375 837.8125 C-262.82973843 836.59964736 -260.7407608 834.55389074 -258 832 C-258 831.34 -258 830.68 -258 830 C-257.10112061 829.83564453 -257.10112061 829.83564453 -256.18408203 829.66796875 C-252.58835544 828.56826967 -250.39774403 825.66391948 -247.875 823 C-242.21175166 817.10587583 -242.21175166 817.10587583 -240 816 C-240 815.34 -240 814.68 -240 814 C-239.40427185 813.89126556 -238.8085437 813.78253113 -238.19476318 813.67050171 C-235.73051114 812.91767096 -234.69591673 812.07555765 -232.88378906 810.27197266 C-232.30348938 809.70112946 -231.7231897 809.13028625 -231.12530518 808.54214478 C-230.51161072 807.92237762 -229.89791626 807.30261047 -229.265625 806.6640625 C-228.62759949 806.02890717 -227.98957397 805.39375183 -227.33221436 804.73934937 C-225.98715234 803.39632701 -224.64586418 802.04951594 -223.30810547 800.69921875 C-221.25421032 798.62924328 -219.18478953 796.5757697 -217.11328125 794.5234375 C-215.80893259 793.21710691 -214.50551458 791.90984627 -213.203125 790.6015625 C-212.58133362 789.98584381 -211.95954224 789.37012512 -211.31890869 788.73574829 C-207.83457034 785.48278389 -207.83457034 785.48278389 -207 781 C-206.34 781 -205.68 781 -205 781 C-203.43135918 779.4492093 -203.43135918 779.4492093 -201.8125 777.4375 C-198.82643769 773.89939256 -195.68187773 770.68586929 -192.28515625 767.54296875 C-190.68000348 765.95048939 -190.68000348 765.95048939 -191 763 C-190.34 763 -189.68 763 -189 763 C-187.29515534 761.31477271 -187.29515534 761.31477271 -185.5625 759.1875 C-182.13503242 755.12339697 -182.13503242 755.12339697 -180.27734375 753.42578125 C-178.66636405 751.94663918 -178.66636405 751.94663918 -179 749 C-178.34 749 -177.68 749 -177 749 C-175.49950064 747.51638306 -175.49950064 747.51638306 -173.9375 745.5625 C-170.44443424 741.42093258 -166.66188863 737.6961053 -162.72265625 733.98046875 C-160.67185538 732.06021914 -160.67185538 732.06021914 -161 729 C-160.34 729 -159.68 729 -159 729 C-157.36324492 727.38200498 -157.36324492 727.38200498 -155.6875 725.3125 C-153.57046411 722.80571692 -151.46319546 720.42357635 -149.0625 718.1875 C-146.65699357 716.13728919 -146.65699357 716.13728919 -147 713 C-146.34 713 -145.68 713 -145 713 C-143.41634563 711.55226257 -143.41634563 711.55226257 -141.875 709.6875 C-141.33617187 709.07261719 -140.79734375 708.45773437 -140.2421875 707.82421875 C-138.71857878 705.95454952 -138.71857878 705.95454952 -139 703 C-138.34 703 -137.68 703 -137 703 C-134.7226499 700.18490007 -134.7226499 700.18490007 -135 697 C-134.34 697 -133.68 697 -133 697 C-133 695.68 -133 694.36 -133 693 C-132.34 693 -131.68 693 -131 693 C-131 691.68 -131 690.36 -131 689 C-130.34 689 -129.68 689 -129 689 C-129 687.68 -129 686.36 -129 685 C-128.34 685 -127.68 685 -127 685 C-127 683.68 -127 682.36 -127 681 C-126.34 681 -125.68 681 -125 681 C-125 679.68 -125 678.36 -125 677 C-124.34 677 -123.68 677 -123 677 C-123 675.68 -123 674.36 -123 673 C-122.34 673 -121.68 673 -121 673 C-118.7226499 670.18490007 -118.7226499 670.18490007 -119 667 C-118.34 667 -117.68 667 -117 667 C-114.7226499 664.18490007 -114.7226499 664.18490007 -115 661 C-114.34 661 -113.68 661 -113 661 C-113 659.68 -113 658.36 -113 657 C-112.34 657 -111.68 657 -111 657 C-108.7226499 654.18490007 -108.7226499 654.18490007 -109 651 C-108.34 651 -107.68 651 -107 651 C-107 649.68 -107 648.36 -107 647 C-106.34 647 -105.68 647 -105 647 C-105 645.68 -105 644.36 -105 643 C-104.34 643 -103.68 643 -103 643 C-103 641.68 -103 640.36 -103 639 C-102.34 639 -101.68 639 -101 639 C-98.7226499 636.18490007 -98.7226499 636.18490007 -99 633 C-98.34 633 -97.68 633 -97 633 C-97 631.68 -97 630.36 -97 629 C-96.34 629 -95.68 629 -95 629 C-92.7226499 626.18490007 -92.7226499 626.18490007 -93 623 C-92.34 623 -91.68 623 -91 623 C-91 621.68 -91 620.36 -91 619 C-90.34 619 -89.68 619 -89 619 C-89 617.68 -89 616.36 -89 615 C-88.34 615 -87.68 615 -87 615 C-84.7226499 612.18490007 -84.7226499 612.18490007 -85 609 C-84.34 609 -83.68 609 -83 609 C-83 607.68 -83 606.36 -83 605 C-82.34 605 -81.68 605 -81 605 C-81 603.68 -81 602.36 -81 601 C-80.34 601 -79.68 601 -79 601 C-79 599.68 -79 598.36 -79 597 C-78.34 597 -77.68 597 -77 597 C-74.7226499 594.18490007 -74.7226499 594.18490007 -75 591 C-74.34 591 -73.68 591 -73 591 C-73 589.68 -73 588.36 -73 587 C-72.34 587 -71.68 587 -71 587 C-71 585.68 -71 584.36 -71 583 C-70.34 583 -69.68 583 -69 583 C-69 581.68 -69 580.36 -69 579 C-68.34 579 -67.68 579 -67 579 C-67 577.68 -67 576.36 -67 575 C-66.34 575 -65.68 575 -65 575 C-65 573.68 -65 572.36 -65 571 C-64.34 571 -63.68 571 -63 571 C-63 569.68 -63 568.36 -63 567 C-62.34 567 -61.68 567 -61 567 C-61 565.68 -61 564.36 -61 563 C-60.34 563 -59.68 563 -59 563 C-59 561.68 -59 560.36 -59 559 C-58.34 559 -57.68 559 -57 559 C-57 557.68 -57 556.36 -57 555 C-56.34 555 -55.68 555 -55 555 C-55 553.68 -55 552.36 -55 551 C-54.34 551 -53.68 551 -53 551 C-53 549.68 -53 548.36 -53 547 C-52.34 547 -51.68 547 -51 547 C-51 545.68 -51 544.36 -51 543 C-50.34 543 -49.68 543 -49 543 C-49 541.68 -49 540.36 -49 539 C-48.34 539 -47.68 539 -47 539 C-47 537.02 -47 535.04 -47 533 C-46.34 533 -45.68 533 -45 533 C-45 531.68 -45 530.36 -45 529 C-44.34 529 -43.68 529 -43 529 C-43 527.68 -43 526.36 -43 525 C-42.34 525 -41.68 525 -41 525 C-41 523.68 -41 522.36 -41 521 C-40.34 521 -39.68 521 -39 521 C-39 519.02 -39 517.04 -39 515 C-38.34 515 -37.68 515 -37 515 C-37 513.68 -37 512.36 -37 511 C-36.34 511 -35.68 511 -35 511 C-35 509.02 -35 507.04 -35 505 C-34.34 505 -33.68 505 -33 505 C-33 503.68 -33 502.36 -33 501 C-32.34 501 -31.68 501 -31 501 C-31 499.02 -31 497.04 -31 495 C-30.34 495 -29.68 495 -29 495 C-29 493.02 -29 491.04 -29 489 C-28.34 489 -27.68 489 -27 489 C-27 487.02 -27 485.04 -27 483 C-26.34 483 -25.68 483 -25 483 C-25 481.68 -25 480.36 -25 479 C-24.34 479 -23.68 479 -23 479 C-23 477.02 -23 475.04 -23 473 C-22.34 473 -21.68 473 -21 473 C-21 471.02 -21 469.04 -21 467 C-20.34 467 -19.68 467 -19 467 C-19 464.36 -19 461.72 -19 459 C-18.34 459 -17.68 459 -17 459 C-17 457.02 -17 455.04 -17 453 C-16.34 453 -15.68 453 -15 453 C-15 450.03 -15 447.06 -15 444 C-18.63 444 -22.26 444 -26 444 Z " fill="#106FBE" transform="translate(720,39)"/>
<path d="M0 0 C1.05840088 0.0707373 2.11680176 0.14147461 3.20727539 0.21435547 C20.50733358 1.25239415 37.81677718 1.15308399 55.14038086 1.13037109 C59.56974297 1.12464378 63.99904484 1.12798625 68.42840481 1.13394356 C71.89201804 1.1375846 75.35561735 1.13639496 78.81923103 1.13381577 C80.45161001 1.13315788 82.08399032 1.1339341 83.71636772 1.13629532 C93.5304298 1.14739661 103.21621862 0.85822107 113 0 C113 1.65 113 3.3 113 5 C98.56195469 5.04667978 84.12392104 5.0818362 69.68581581 5.10362434 C62.98225002 5.11394563 56.27873105 5.12802217 49.57519531 5.15087891 C43.11077754 5.17254588 36.64640851 5.18455562 30.18195724 5.18975449 C27.71069954 5.19346132 25.23944461 5.20069939 22.76820755 5.21146011 C19.31758016 5.22589332 15.86715643 5.22798137 12.41650391 5.22705078 C11.38576248 5.23424133 10.35502106 5.24143188 9.29304504 5.24884033 C8.35632462 5.246091 7.41960419 5.24334167 6.45449829 5.24050903 C5.63778971 5.24235262 4.82108112 5.24419621 3.97962379 5.24609566 C2 5 2 5 0 3 C0 2.01 0 1.02 0 0 Z " fill="#1B78C5" transform="translate(278,972)"/>
<path d="M0 0 C1.98 0 3.96 0 6 0 C6 0.99 6 1.98 6 3 C12.435 2.505 12.435 2.505 19 2 C19.66 3.65 20.32 5.3 21 7 C18.69 7 16.38 7 14 7 C14 6.34 14 5.68 14 5 C8.06 5 2.12 5 -4 5 C-4 4.34 -4 3.68 -4 3 C-3.01 2.67 -2.02 2.34 -1 2 C-0.67 1.34 -0.34 0.68 0 0 Z " fill="#519AD1" transform="translate(742,68)"/>
<path d="M0 0 C7.03422985 -0.27585215 14.17639574 0.19261473 21 2 C21.99 3.485 21.99 3.485 23 5 C22.67 5.99 22.34 6.98 22 8 C21.34 6.35 20.68 4.7 20 3 C13.565 3.495 13.565 3.495 7 4 C7 3.01 7 2.02 7 1 C5.02 1 3.04 1 1 1 C0.67 1.99 0.34 2.98 0 4 C-0.99 4 -1.98 4 -3 4 C-3.33 4.66 -3.66 5.32 -4 6 C-4 4.68 -4 3.36 -4 2 C-2.68 2 -1.36 2 0 2 C0 1.34 0 0.68 0 0 Z " fill="#217AC4" transform="translate(741,67)"/>
<path d="M0 0 C1.98 0 3.96 0 6 0 C6.66 1.65 7.32 3.3 8 5 C5.69 5 3.38 5 1 5 C1 4.34 1 3.68 1 3 C0.34 3 -0.32 3 -1 3 C-0.67 2.01 -0.34 1.02 0 0 Z " fill="#77AED9" transform="translate(755,70)"/>
<path d="M0 0 C3.3 0 6.6 0 10 0 C10.33 0.99 10.66 1.98 11 3 C7.37 3 3.74 3 0 3 C0 2.01 0 1.02 0 0 Z " fill="#E2EDF4" transform="translate(281,974)"/>
<path d="M0 0 C3.3 0 6.6 0 10 0 C10 0.99 10 1.98 10 3 C6.7 3 3.4 3 0 3 C0 2.01 0 1.02 0 0 Z " fill="#E5EFF5" transform="translate(378,974)"/>
<path d="M0 0 C4.51617599 -0.07654536 8.59085217 -0.10228696 13 1 C13 1.33 13 1.66 13 2 C9.7 2 6.4 2 3 2 C2.67 2.99 2.34 3.98 2 5 C1.34 4.34 0.68 3.68 0 3 C0 2.01 0 1.02 0 0 Z " fill="#4D90CF" transform="translate(278,972)"/>
<path d="M0 0 C2.31 0 4.62 0 7 0 C7 1.65 7 3.3 7 5 C6.01 5 5.02 5 4 5 C4 4.01 4 3.02 4 2 C2.35 2 0.7 2 -1 2 C-0.67 1.34 -0.34 0.68 0 0 Z " fill="#89B6D8" transform="translate(384,972)"/>
</svg>
